Coordinates
version=1
nRows=49
nColumns=12
inDegrees=yes

Units are S.I. units (second, meters, Newtons, ...)
Angles are in degrees

endheader
time	SC_y	SC_z	SC_x	AC_y	AC_z	AC_x	GH_y	GH_z	GH_yy	EL_x	PS_y
       0.0              -24.25          2.858          21.52          46.83         -5.006          6.746         -149.0          76.49         -30.73          28.03          122.7
   0.03307              -24.25          2.861          21.52          46.83         -5.007          6.745         -149.0          76.49         -30.74          28.03          122.6
   0.06614              -24.25          2.864          21.53          46.83         -5.008          6.744         -149.0          76.48         -30.75          28.04          122.6
   0.09921              -24.26          2.867          21.54          46.84          -5.01          6.743         -149.0          76.48         -30.76          28.04          122.6
    0.1323              -24.26           2.87          21.54          46.84         -5.011          6.742         -148.9          76.48         -30.77          28.04          122.6
    0.1653              -24.26          2.873          21.55          46.84         -5.013           6.74         -148.9          76.47         -30.79          28.05          122.6
    0.1984              -24.27          2.877          21.55          46.84         -5.014          6.739         -148.9          76.47          -30.8          28.05          122.6
    0.2315              -24.27          2.881          21.56          46.84         -5.016          6.737         -148.9          76.47         -30.81          28.06          122.5
    0.2646              -24.28          2.885          21.57          46.84         -5.018          6.735         -148.9          76.46         -30.83          28.07          122.5
    0.2976              -24.28          2.889          21.58          46.84          -5.02          6.734         -148.8          76.46         -30.85          28.07          122.5
    0.3307              -24.29          2.894          21.58          46.84         -5.022          6.732         -148.8          76.45         -30.87          28.08          122.5
    0.3638              -24.29          2.899          21.59          46.84         -5.024           6.73         -148.8          76.44         -30.89          28.09          122.5
    0.3968               -24.3          2.905           21.6          46.84         -5.027          6.727         -148.7          76.44         -30.91          28.09          122.4
    0.4299               -24.3          2.911          21.61          46.85          -5.03          6.725         -148.7          76.43         -30.93           28.1          122.4
     0.463              -24.31          2.917          21.62          46.85         -5.033          6.722         -148.7          76.42         -30.96          28.11          122.4
     0.496              -24.32          2.924          21.64          46.85         -5.036          6.719         -148.6          76.41         -30.99          28.12          122.3
    0.5291              -24.33          2.932          21.65          46.85         -5.039          6.716         -148.6          76.41         -31.02          28.13          122.3
    0.5622              -24.34           2.94          21.66          46.85         -5.043          6.713         -148.5           76.4         -31.05          28.14          122.3
    0.5953              -24.34          2.949          21.68          46.86         -5.047          6.709         -148.5          76.39         -31.09          28.16          122.2
    0.6283              -24.36          2.959           21.7          46.86         -5.052          6.705         -148.4          76.37         -31.13          28.17          122.2
    0.6614              -24.37           2.97          21.72          46.86         -5.057            6.7         -148.4          76.36         -31.17          28.19          122.1
    0.6945              -24.38          2.982          21.74          46.86         -5.063          6.695         -148.3          76.35         -31.22           28.2          122.1
    0.7275              -24.39          2.995          21.76          46.87         -5.069           6.69         -148.2          76.33         -31.27          28.22          122.0
    0.7606              -24.41          3.009          21.79          46.87         -5.075          6.684         -148.1          76.32         -31.33          28.24          121.9
    0.7937              -24.43          3.026          21.82          46.88         -5.083          6.677         -148.0           76.3          -31.4          28.26          121.9
    0.8267              -24.45          3.044          21.85          46.88         -5.091          6.669         -147.9          76.28         -31.47          28.29          121.8
    0.8598              -24.47          3.064          21.88          46.89         -5.101          6.661         -147.8          76.25         -31.55          28.32          121.7
    0.8929              -24.49          3.087          21.93          46.89         -5.111          6.652         -147.7          76.23         -31.64          28.35          121.6
     0.926              -24.52          3.113          21.97           46.9         -5.123          6.641         -147.5           76.2         -31.75          28.39          121.4
     0.959              -24.55          3.142          22.02           46.9         -5.137          6.629         -147.3          76.16         -31.86          28.43          121.3
    0.9921              -24.59          3.176          22.08          46.91         -5.152          6.615         -147.1          76.12          -32.0          28.48          121.1
     1.025              -24.63          3.214          22.15          46.92          -5.17          6.599         -146.9          76.08         -32.15          28.53          121.0
     1.058              -24.67          3.258          22.23          46.93         -5.191           6.58         -146.7          76.03         -32.33          28.59          120.7
     1.091              -24.73           3.31          22.32          46.95         -5.214          6.559         -146.3          75.97         -32.54          28.67          120.5
     1.124              -24.79           3.37          22.43          46.96         -5.242          6.534         -146.0           75.9         -32.78          28.75          120.2
     1.157              -24.87          3.441          22.55          46.98         -5.275          6.505         -145.6          75.81         -33.07          28.85          119.9
     1.191              -24.96          3.526           22.7           47.0         -5.314           6.47         -145.1          75.72          -33.4          28.97          119.5
     1.224              -25.07          3.627          22.88          47.03         -5.361          6.428         -144.5           75.6         -33.81          29.12          119.0
     1.257               -25.2          3.749           23.1          47.06         -5.417          6.377         -143.8          75.46          -34.3          29.29          118.4
      1.29              -25.36          3.899          23.36          47.09         -5.487          6.315         -142.9          75.28          -34.9           29.5          117.7
     1.323              -25.55          4.084          23.69          47.14         -5.572          6.238         -141.8          75.07         -35.64          29.76          116.8
     1.356               -25.8          4.314           24.1           47.2         -5.678          6.142         -140.4           74.8         -36.57          30.09          115.7
     1.389              -26.11          4.604          24.61          47.27         -5.813          6.022         -138.7          74.46         -37.73           30.5          114.3
     1.422               -26.5          4.973          25.27          47.36         -5.983          5.869         -136.5          74.03         -39.21          31.02          112.6
     1.455               -27.0          5.445           26.1          47.48         -6.201          5.673         -133.7          73.49         -41.11          31.69          110.3
     1.488              -27.65          6.051          27.18          47.64         -6.481          5.422         -130.2          72.78         -43.54          32.55          107.4
     1.521              -28.47          6.824          28.55          47.83         -6.839          5.101         -125.6          71.88         -46.65          33.65          103.8
     1.554              -29.51          7.797          30.27          48.07         -7.288          4.697         -119.9          70.75         -50.55          35.03          99.13
     1.587              -30.77          8.983          32.37          48.37         -7.836          4.205         -112.9          69.38         -55.31          36.71          93.48
